<?xml version="1.0" encoding="utf-8"?>
<!-- Generator: Adobe Illustrator 17.0.0, SVG Export Plug-In . SVG Version: 6.00 Build 0)  -->
<!DOCTYPE svg PUBLIC "-//W3C//DTD SVG 1.1//EN" "http://www.w3.org/Graphics/SVG/1.1/DTD/svg11.dtd">
<svg version="1.1" id="Capa_1" xmlns="http://www.w3.org/2000/svg" xmlns:xlink="http://www.w3.org/1999/xlink" x="0px" y="0px"
	 width="633px" height="400px" viewBox="0 0 633 400" enable-background="new 0 0 633 400" xml:space="preserve">
<g>
	<path fill="#050505" d="M99.131,275.457h111.342V71.615H99.131v50.481H87.069v61.906H54.586v-61.906V60.19h73.21V20.175H16.454
		v203.842h82.677V275.457z M116.434,224.017h11.362V122.096h-11.362v-31.52h76.735v165.92h-76.735V224.017z"/>
	<path fill="#050505" d="M264.235,196.402c1.148-1.953,1.722-4.275,1.722-6.968c0-3.089-0.75-5.71-2.251-7.861
		c-1.501-2.152-3.476-3.625-5.925-4.419c-2.45-0.794-5.991-1.192-10.625-1.192h-24.991v48.526h15.061v-19.695h1.324
		c1.368,0,2.592,0.376,3.674,1.126c0.794,0.574,1.699,1.82,2.714,3.74l8.015,14.829h16.943l-7.261-14.062
		c-0.353-0.706-1.053-1.711-2.101-3.015c-1.048-1.303-1.847-2.153-2.398-2.551c-0.816-0.596-2.117-1.192-3.903-1.789
		c2.23-0.508,3.986-1.147,5.266-1.92C261.508,199.939,263.087,198.355,264.235,196.402z M249.953,193.44
		c-0.629,0.816-1.44,1.324-2.433,1.522c-1.964,0.442-3.289,0.662-3.972,0.662h-6.322v-9.864h6.587c2.736,0,4.601,0.419,5.594,1.258
		c0.993,0.839,1.489,2.042,1.489,3.608C250.896,191.685,250.582,192.623,249.953,193.44z"/>
	<polygon fill="#050505" points="298.741,224.488 298.741,187.944 314.034,187.944 314.034,175.962 268.453,175.962 
		268.453,187.944 283.746,187.944 283.746,224.488 	"/>
	<rect x="319.178" y="175.962" fill="#050505" width="15.028" height="48.526"/>
	<polygon fill="#050505" points="338.887,224.488 384.93,224.488 384.93,214.061 356.697,214.061 383.937,185.661 383.937,175.962 
		341.501,175.962 341.501,186.323 365.842,186.323 338.887,214.425 	"/>
	<path fill="#050505" d="M429.974,215.783c-2.869,0-5.076-0.982-6.62-2.946c-0.949-1.214-1.578-2.979-1.887-5.296l-14.267,0.894
		c0.419,4.898,2.218,8.938,5.396,12.114c3.178,3.178,8.893,4.767,17.146,4.767c4.701,0,8.595-0.678,11.685-2.035
		s5.495-3.349,7.216-5.975s2.582-5.495,2.582-8.606c0-2.648-0.646-5.042-1.936-7.183c-1.291-2.141-3.354-3.934-6.19-5.379
		c-2.836-1.445-7.53-2.875-14.084-4.287c-2.648-0.551-4.325-1.147-5.031-1.788c-0.729-0.618-1.092-1.313-1.092-2.085
		c0-1.059,0.441-1.958,1.324-2.698c0.882-0.739,2.196-1.109,3.939-1.109c2.119,0,3.779,0.497,4.982,1.49
		c1.203,0.993,1.991,2.582,2.367,4.767l14.134-0.828c-0.618-5.031-2.554-8.7-5.809-11.006c-3.255-2.306-7.983-3.459-14.184-3.459
		c-5.054,0-9.031,0.635-11.933,1.903c-2.902,1.27-5.076,3.012-6.521,5.23c-1.446,2.218-2.168,4.574-2.168,7.067
		c0,3.795,1.412,6.918,4.237,9.367c2.802,2.45,7.492,4.414,14.068,5.892c4.016,0.883,6.576,1.82,7.679,2.813
		c1.103,0.993,1.655,2.118,1.655,3.376c0,1.324-0.58,2.488-1.738,3.492C433.765,215.281,432.115,215.783,429.974,215.783z"/>
	<rect x="455.674" y="210.983" fill="#050505" width="14.399" height="13.505"/>
	<path fill="#050505" d="M490.245,175.962l-18.239,48.526h15.311l2.365-8.011h17.023l2.428,8.011h15.702l-18.234-48.526H490.245z
		 M492.939,205.985l5.301-17.444l5.355,17.444H492.939z"/>
	<rect x="526.504" y="210.983" fill="#050505" width="14.398" height="13.505"/>
	<path fill="#050505" d="M570.84,186.356c1.5,0,2.857,0.31,4.071,0.927s2.239,1.5,3.078,2.648c0.508,0.684,0.993,1.766,1.457,3.244
		l13.24-2.946c-1.699-5.119-4.298-8.915-7.795-11.387c-3.498-2.471-8.304-3.708-14.416-3.708c-7.812,0-13.853,2.156-18.122,6.467
		c-4.271,4.312-6.405,10.48-6.405,18.507c0,6.021,1.213,10.961,3.641,14.82s5.313,6.555,8.656,8.087
		c3.343,1.532,7.651,2.299,12.926,2.299c4.347,0,7.928-0.629,10.741-1.887s5.169-3.122,7.067-5.594
		c1.897-2.471,3.287-5.55,4.17-9.235l-13.141-3.972c-0.662,3.067-1.727,5.406-3.194,7.018c-1.468,1.61-3.636,2.416-6.504,2.416
		c-2.958,0-5.253-0.997-6.885-2.992c-1.634-1.994-2.45-5.681-2.45-11.059c0-4.341,0.684-7.526,2.053-9.554
		C564.837,187.723,567.442,186.356,570.84,186.356z"/>
	<path fill="#050505" d="M615.446,297.809c0.125-2.118-4.334-6.295-4.334-6.295c-140.47-91.27-242.834-22.406-321.878-3.757
		c-0.509,0.12-1.017,0.352-1.562,0.352c-55.725,0-189.069-0.352-189.069-0.352c0,6.448,10.041,20.595,12.9,24.563
		c59.922,83.174,95.485,66.048,95.485,66.048c36.244-36.244,43.214-74,43.214-74l363.837,0.117
		C614.038,304.486,615.212,301.779,615.446,297.809z"/>
	<path fill="#050505" d="M228.743,158.701c1.834,0,3.348-0.453,4.542-1.358c1.193-0.905,2.046-2.291,2.56-4.157l-3.347-1.061
		c-0.288,1.251-0.762,2.168-1.422,2.751s-1.45,0.875-2.367,0.875c-1.244,0-2.254-0.458-3.031-1.375
		c-0.777-0.917-1.166-2.457-1.166-4.618c0-2.037,0.395-3.51,1.184-4.419c0.789-0.91,1.817-1.364,3.084-1.364
		c0.917,0,1.696,0.256,2.338,0.77c0.641,0.513,1.063,1.212,1.265,2.099l3.416-0.816c-0.389-1.368-0.972-2.417-1.749-3.148
		c-1.306-1.236-3.004-1.854-5.095-1.854c-2.395,0-4.326,0.787-5.795,2.361s-2.204,3.784-2.204,6.628c0,2.69,0.731,4.81,2.192,6.361
		S226.473,158.701,228.743,158.701z"/>
	<path fill="#050505" d="M245.679,158.701c2.511,0,4.516-0.779,6.017-2.338c1.5-1.559,2.25-3.717,2.25-6.477
		c0-2.783-0.756-4.956-2.268-6.518c-1.512-1.563-3.527-2.344-6.046-2.344c-1.392,0-2.62,0.226-3.685,0.676
		c-0.801,0.334-1.537,0.848-2.209,1.539c-0.672,0.692-1.203,1.473-1.592,2.344c-0.521,1.182-0.781,2.643-0.781,4.384
		c0,2.721,0.75,4.856,2.25,6.407C241.116,157.926,243.137,158.701,245.679,158.701z M242.227,145.438
		c0.871-0.976,2.017-1.463,3.44-1.463c1.422,0,2.563,0.482,3.422,1.446c0.858,0.964,1.288,2.425,1.288,4.384
		c0,1.982-0.441,3.469-1.323,4.46c-0.882,0.991-2.011,1.486-3.387,1.486s-2.511-0.499-3.405-1.498
		c-0.894-0.999-1.341-2.466-1.341-4.402C240.922,147.885,241.357,146.414,242.227,145.438z"/>
	<polygon fill="#050505" points="259.141,147.263 266.032,158.41 269.495,158.41 269.495,141.316 266.288,141.316 266.288,152.732 
		259.292,141.316 255.934,141.316 255.934,158.41 259.141,158.41 	"/>
	<path fill="#050505" d="M281.132,155.092c-0.563,0.471-1.401,0.706-2.513,0.706c-1.049,0-1.883-0.264-2.501-0.793
		c-0.618-0.528-1.028-1.356-1.23-2.483l-3.358,0.326c0.226,1.913,0.917,3.368,2.076,4.367c1.158,0.999,2.817,1.499,4.979,1.499
		c1.485,0,2.725-0.208,3.72-0.624c0.995-0.416,1.765-1.051,2.309-1.906s0.816-1.772,0.816-2.752c0-1.08-0.228-1.988-0.682-2.723
		c-0.455-0.734-1.084-1.313-1.889-1.737c-0.804-0.423-2.046-0.833-3.725-1.23c-1.679-0.396-2.736-0.777-3.172-1.143
		c-0.342-0.288-0.513-0.634-0.513-1.038c0-0.443,0.183-0.796,0.548-1.061c0.567-0.412,1.353-0.618,2.355-0.618
		c0.972,0,1.7,0.192,2.186,0.577s0.803,1.016,0.951,1.895l3.451-0.151c-0.055-1.57-0.624-2.826-1.708-3.766
		c-1.084-0.94-2.7-1.411-4.845-1.411c-1.313,0-2.435,0.198-3.364,0.595s-1.64,0.974-2.134,1.731s-0.74,1.572-0.74,2.443
		c0,1.353,0.524,2.499,1.574,3.44c0.746,0.668,2.044,1.232,3.894,1.69c1.438,0.358,2.359,0.606,2.764,0.746
		c0.591,0.21,1.004,0.457,1.242,0.741s0.355,0.628,0.355,1.032C281.977,154.072,281.695,154.622,281.132,155.092z"/>
	<path fill="#050505" d="M288.874,156.667c0.49,0.603,1.156,1.092,2,1.469s2.082,0.565,3.714,0.565c1.353,0,2.449-0.173,3.288-0.519
		c0.839-0.346,1.51-0.81,2.011-1.393c0.501-0.583,0.846-1.298,1.032-2.146s0.28-2.297,0.28-4.349v-8.979h-3.452v9.457
		c0,1.353-0.05,2.32-0.151,2.903s-0.4,1.075-0.898,1.475s-1.236,0.6-2.215,0.6c-0.964,0-1.724-0.211-2.279-0.635
		c-0.556-0.424-0.908-0.985-1.056-1.685c-0.085-0.435-0.128-1.387-0.128-2.856v-9.258h-3.452v9.118c0,1.912,0.113,3.358,0.338,4.337
		C288.062,155.433,288.385,156.064,288.874,156.667z"/>
	<polygon fill="#050505" points="316.223,155.53 307.641,155.53 307.641,141.456 304.19,141.456 304.19,158.41 316.223,158.41 	"/>
	<polygon fill="#050505" points="320.018,158.41 323.47,158.41 323.47,144.208 328.531,144.208 328.531,141.316 314.947,141.316 
		314.947,144.208 320.018,144.208 	"/>
	<path fill="#050505" d="M337.2,158.701c2.511,0,4.516-0.779,6.017-2.338c1.5-1.559,2.25-3.717,2.25-6.477
		c0-2.783-0.756-4.956-2.268-6.518c-1.512-1.563-3.527-2.344-6.046-2.344c-1.392,0-2.62,0.226-3.685,0.676
		c-0.801,0.334-1.537,0.848-2.209,1.539c-0.672,0.692-1.203,1.473-1.592,2.344c-0.521,1.182-0.781,2.643-0.781,4.384
		c0,2.721,0.75,4.856,2.25,6.407C332.637,157.926,334.658,158.701,337.2,158.701z M333.748,145.438
		c0.871-0.976,2.017-1.463,3.44-1.463c1.422,0,2.563,0.482,3.422,1.446c0.858,0.964,1.288,2.425,1.288,4.384
		c0,1.982-0.441,3.469-1.323,4.46c-0.882,0.991-2.011,1.486-3.387,1.486s-2.511-0.499-3.405-1.498
		c-0.894-0.999-1.341-2.466-1.341-4.402C332.443,147.885,332.878,146.414,333.748,145.438z"/>
	<path fill="#050505" d="M350.883,151.274h0.7c0.793,0,1.372,0.064,1.737,0.192c0.365,0.128,0.711,0.365,1.038,0.711
		c0.326,0.346,0.933,1.184,1.819,2.513l2.495,3.72h3.516h0.612h3.049l1.411-3.883h6.833l1.493,3.883h3.754l-6.844-17.094h-3.65
		l-6.423,16.491l-1.71-2.732c-0.824-1.329-1.479-2.254-1.965-2.775c-0.486-0.521-1.102-0.999-1.848-1.434
		c1.5-0.218,2.627-0.744,3.382-1.58c0.754-0.835,1.131-1.895,1.131-3.177c0-1.011-0.249-1.908-0.746-2.694
		c-0.498-0.785-1.16-1.331-1.988-1.638c-0.828-0.307-2.155-0.46-3.982-0.46h-7.264v17.094h3.451V151.274z M370.63,145.304
		l2.355,6.343h-4.664L370.63,145.304z M350.883,144.208h2.694c1.399,0,2.239,0.02,2.519,0.059c0.56,0.093,0.993,0.317,1.3,0.67
		s0.461,0.818,0.461,1.393c0,0.513-0.117,0.941-0.35,1.283c-0.233,0.342-0.556,0.583-0.968,0.723c-0.412,0.14-1.446,0.21-3.102,0.21
		h-2.554V144.208z"/>
	<polygon fill="#050505" points="389.496,158.41 392.935,158.41 392.935,151.239 399.221,141.316 395.245,141.316 391.303,148.079 
		387.281,141.316 383.234,141.316 389.496,151.215 	"/>
	<path fill="#050505" d="M412.84,158.701c1.834,0,3.348-0.453,4.542-1.358c1.193-0.905,2.046-2.291,2.56-4.157l-3.347-1.061
		c-0.288,1.251-0.762,2.168-1.422,2.751s-1.45,0.875-2.367,0.875c-1.244,0-2.254-0.458-3.031-1.375
		c-0.777-0.917-1.166-2.457-1.166-4.618c0-2.037,0.395-3.51,1.184-4.419c0.789-0.91,1.817-1.364,3.084-1.364
		c0.917,0,1.696,0.256,2.338,0.77c0.641,0.513,1.063,1.212,1.265,2.099l3.416-0.816c-0.389-1.368-0.972-2.417-1.749-3.148
		c-1.306-1.236-3.004-1.854-5.095-1.854c-2.395,0-4.326,0.787-5.795,2.361s-2.204,3.784-2.204,6.628c0,2.69,0.731,4.81,2.192,6.361
		S410.57,158.701,412.84,158.701z"/>
	<path fill="#050505" d="M429.776,158.701c2.511,0,4.516-0.779,6.017-2.338c1.5-1.559,2.25-3.717,2.25-6.477
		c0-2.783-0.756-4.956-2.268-6.518c-1.512-1.563-3.527-2.344-6.046-2.344c-1.392,0-2.62,0.226-3.685,0.676
		c-0.801,0.334-1.537,0.848-2.209,1.539c-0.672,0.692-1.203,1.473-1.592,2.344c-0.521,1.182-0.781,2.643-0.781,4.384
		c0,2.721,0.75,4.856,2.25,6.407C425.213,157.926,427.234,158.701,429.776,158.701z M426.325,145.438
		c0.871-0.976,2.017-1.463,3.44-1.463c1.422,0,2.563,0.482,3.422,1.446c0.858,0.964,1.288,2.425,1.288,4.384
		c0,1.982-0.441,3.469-1.323,4.46c-0.882,0.991-2.011,1.486-3.387,1.486s-2.511-0.499-3.405-1.498
		c-0.894-0.999-1.341-2.466-1.341-4.402C425.019,147.885,425.454,146.414,426.325,145.438z"/>
	<polygon fill="#050505" points="443.238,147.263 450.129,158.41 453.592,158.41 453.592,141.316 450.386,141.316 450.386,152.732 
		443.39,141.316 440.032,141.316 440.032,158.41 443.238,158.41 	"/>
	<path fill="#050505" d="M465.229,155.092c-0.563,0.471-1.401,0.706-2.513,0.706c-1.049,0-1.883-0.264-2.501-0.793
		c-0.618-0.528-1.028-1.356-1.23-2.483l-3.358,0.326c0.226,1.913,0.917,3.368,2.076,4.367c1.158,0.999,2.817,1.499,4.979,1.499
		c1.485,0,2.725-0.208,3.72-0.624c0.995-0.416,1.765-1.051,2.309-1.906s0.816-1.772,0.816-2.752c0-1.08-0.228-1.988-0.682-2.723
		c-0.455-0.734-1.084-1.313-1.889-1.737c-0.804-0.423-2.046-0.833-3.725-1.23c-1.679-0.396-2.736-0.777-3.172-1.143
		c-0.342-0.288-0.513-0.634-0.513-1.038c0-0.443,0.183-0.796,0.548-1.061c0.567-0.412,1.353-0.618,2.355-0.618
		c0.972,0,1.7,0.192,2.186,0.577s0.803,1.016,0.951,1.895l3.451-0.151c-0.055-1.57-0.624-2.826-1.708-3.766
		c-1.084-0.94-2.7-1.411-4.845-1.411c-1.313,0-2.435,0.198-3.364,0.595s-1.64,0.974-2.134,1.731s-0.74,1.572-0.74,2.443
		c0,1.353,0.524,2.499,1.574,3.44c0.746,0.668,2.044,1.232,3.894,1.69c1.438,0.358,2.359,0.606,2.764,0.746
		c0.591,0.21,1.004,0.457,1.242,0.741s0.355,0.628,0.355,1.032C466.074,154.072,465.792,154.622,465.229,155.092z"/>
	<polygon fill="#050505" points="475.536,158.41 478.988,158.41 478.988,144.208 484.049,144.208 484.049,141.316 470.465,141.316 
		470.465,144.208 475.536,144.208 	"/>
	<path fill="#050505" d="M488.998,151.274h0.7c0.793,0,1.372,0.064,1.737,0.192c0.365,0.128,0.711,0.365,1.038,0.711
		c0.326,0.346,0.933,1.184,1.819,2.513l2.496,3.72h4.127l-2.086-3.335c-0.824-1.329-1.48-2.254-1.965-2.775
		c-0.486-0.521-1.103-0.999-1.849-1.434c1.5-0.218,2.628-0.744,3.382-1.58c0.754-0.835,1.131-1.895,1.131-3.177
		c0-1.011-0.25-1.908-0.746-2.694c-0.498-0.785-1.16-1.331-1.988-1.638c-0.828-0.307-2.156-0.46-3.982-0.46h-7.264v17.094h3.451
		V151.274z M488.998,144.208h2.694c1.399,0,2.239,0.02,2.519,0.059c0.56,0.093,0.993,0.317,1.3,0.67
		c0.307,0.354,0.461,0.818,0.461,1.393c0,0.513-0.117,0.941-0.35,1.283c-0.233,0.342-0.556,0.583-0.968,0.723
		c-0.412,0.14-1.446,0.21-3.102,0.21h-2.554V144.208z"/>
	<path fill="#050505" d="M503.323,156.667c0.49,0.603,1.156,1.092,2,1.469s2.081,0.565,3.714,0.565c1.353,0,2.448-0.173,3.288-0.519
		c0.84-0.346,1.51-0.81,2.012-1.393c0.501-0.583,0.845-1.298,1.031-2.146s0.28-2.297,0.28-4.349v-8.979h-3.451v9.457
		c0,1.353-0.051,2.32-0.151,2.903c-0.102,0.583-0.401,1.075-0.898,1.475s-1.235,0.6-2.215,0.6c-0.965,0-1.725-0.211-2.28-0.635
		s-0.907-0.985-1.055-1.685c-0.086-0.435-0.129-1.387-0.129-2.856v-9.258h-3.451v9.118c0,1.912,0.112,3.358,0.338,4.337
		C502.511,155.433,502.833,156.064,503.323,156.667z"/>
	<path fill="#050505" d="M525.728,158.701c1.835,0,3.349-0.453,4.542-1.358c1.192-0.905,2.046-2.291,2.559-4.157l-3.346-1.061
		c-0.288,1.251-0.762,2.168-1.423,2.751s-1.45,0.875-2.367,0.875c-1.243,0-2.254-0.458-3.031-1.375
		c-0.777-0.917-1.166-2.457-1.166-4.618c0-2.037,0.395-3.51,1.184-4.419c0.789-0.91,1.816-1.364,3.084-1.364
		c0.917,0,1.696,0.256,2.338,0.77s1.063,1.212,1.265,2.099l3.417-0.816c-0.389-1.368-0.972-2.417-1.749-3.148
		c-1.307-1.236-3.005-1.854-5.096-1.854c-2.395,0-4.326,0.787-5.795,2.361c-1.47,1.574-2.204,3.784-2.204,6.628
		c0,2.69,0.73,4.81,2.192,6.361C521.592,157.926,523.458,158.701,525.728,158.701z"/>
	<polygon fill="#050505" points="538.898,158.41 542.349,158.41 542.349,144.208 547.41,144.208 547.41,141.316 533.826,141.316 
		533.826,144.208 538.898,144.208 	"/>
	<path fill="#050505" d="M556.079,158.701c2.511,0,4.516-0.779,6.017-2.338c1.5-1.559,2.25-3.717,2.25-6.477
		c0-2.783-0.756-4.956-2.268-6.518s-3.527-2.344-6.046-2.344c-1.392,0-2.62,0.226-3.685,0.676c-0.801,0.334-1.537,0.848-2.21,1.539
		c-0.672,0.692-1.202,1.473-1.591,2.344c-0.521,1.182-0.781,2.643-0.781,4.384c0,2.721,0.75,4.856,2.25,6.407
		S553.537,158.701,556.079,158.701z M552.628,145.438c0.87-0.976,2.017-1.463,3.439-1.463s2.563,0.482,3.422,1.446
		c0.859,0.964,1.289,2.425,1.289,4.384c0,1.982-0.441,3.469-1.324,4.46c-0.882,0.991-2.011,1.486-3.387,1.486
		s-2.511-0.499-3.405-1.498c-0.894-0.999-1.341-2.466-1.341-4.402C551.322,147.885,551.757,146.414,552.628,145.438z"/>
	<path fill="#050505" d="M569.762,151.274h0.7c0.793,0,1.371,0.064,1.737,0.192c0.365,0.128,0.711,0.365,1.037,0.711
		c0.327,0.346,0.934,1.184,1.819,2.513l2.495,3.72h3.516h0.612h3.049l1.411-3.883h6.833l1.492,3.883h3.755l-6.845-17.094h-3.649
		l-6.423,16.491l-1.71-2.732c-0.824-1.329-1.479-2.254-1.965-2.775c-0.486-0.521-1.103-0.999-1.849-1.434
		c1.5-0.218,2.628-0.744,3.382-1.58c0.754-0.835,1.131-1.895,1.131-3.177c0-1.011-0.249-1.908-0.746-2.694
		c-0.498-0.785-1.16-1.331-1.988-1.638c-0.828-0.307-2.155-0.46-3.981-0.46h-7.265v17.094h3.451V151.274z M589.509,145.304
		l2.354,6.343H587.2L589.509,145.304z M569.762,144.208h2.693c1.399,0,2.239,0.02,2.519,0.059c0.56,0.093,0.993,0.317,1.301,0.67
		c0.307,0.354,0.46,0.818,0.46,1.393c0,0.513-0.116,0.941-0.35,1.283c-0.233,0.342-0.556,0.583-0.968,0.723
		c-0.412,0.14-1.445,0.21-3.102,0.21h-2.554V144.208z"/>
	<path fill="#050505" d="M287.916,319.971l-6.658,17.094h3.661l1.411-3.883h6.833l1.493,3.883h3.754l-6.844-17.094H287.916z
		 M287.391,330.302l2.309-6.343l2.355,6.343H287.391z"/>
	<path fill="#050505" d="M310.828,330.955c-0.486-0.521-1.102-0.998-1.848-1.434c1.5-0.218,2.627-0.744,3.382-1.58
		c0.754-0.836,1.131-1.895,1.131-3.178c0-1.01-0.249-1.908-0.746-2.693c-0.498-0.785-1.16-1.331-1.988-1.638
		c-0.828-0.308-2.155-0.461-3.982-0.461h-7.264v17.094h3.451v-7.136h0.7c0.793,0,1.372,0.063,1.737,0.192
		c0.365,0.128,0.711,0.365,1.038,0.711c0.326,0.346,0.933,1.184,1.819,2.513l2.495,3.72h4.128l-2.087-3.335
		C311.969,332.401,311.314,331.476,310.828,330.955z M305.517,327.201h-2.554v-4.338h2.694c1.399,0,2.239,0.02,2.519,0.059
		c0.56,0.093,0.993,0.316,1.3,0.67c0.307,0.354,0.461,0.818,0.461,1.394c0,0.514-0.117,0.94-0.35,1.283
		c-0.233,0.342-0.556,0.583-0.968,0.723S307.173,327.201,305.517,327.201z"/>
	<path fill="#050505" d="M331.257,332.413c0.412-1.119,0.618-2.418,0.618-3.895c0-2.791-0.743-4.961-2.227-6.512
		c-1.485-1.551-3.495-2.326-6.028-2.326c-2.558,0-4.583,0.775-6.075,2.326c-1.492,1.551-2.239,3.721-2.239,6.512
		c0,2.799,0.745,4.972,2.233,6.518c1.489,1.548,3.547,2.32,6.174,2.32c1.36,0,2.6-0.244,3.719-0.734
		c1.423,0.956,2.188,1.462,2.297,1.516c0.497,0.272,1.006,0.486,1.527,0.642l1.271-2.437c-0.995-0.357-1.917-0.84-2.764-1.446
		C330.448,334.095,330.946,333.268,331.257,332.413z M327.986,331.06c-0.222,0.738-0.554,1.368-0.997,1.889
		c-1.034-0.777-2.118-1.36-3.253-1.749l-0.968,1.971c0.723,0.257,1.435,0.614,2.134,1.073c-0.443,0.163-0.913,0.244-1.411,0.244
		c-1.337,0-2.443-0.495-3.317-1.486s-1.312-2.485-1.312-4.483c0-1.967,0.437-3.439,1.312-4.419s2.015-1.47,3.422-1.47
		c1.407,0,2.546,0.488,3.417,1.464c0.87,0.976,1.306,2.45,1.306,4.425C328.318,329.474,328.207,330.322,327.986,331.06z"/>
	<path fill="#050505" d="M343.995,329.427c0,1.353-0.05,2.32-0.151,2.903s-0.4,1.075-0.898,1.476s-1.236,0.601-2.215,0.601
		c-0.964,0-1.724-0.212-2.279-0.636c-0.556-0.424-0.908-0.985-1.056-1.685c-0.085-0.436-0.128-1.388-0.128-2.857v-9.258h-3.452
		v9.118c0,1.912,0.113,3.358,0.338,4.338c0.155,0.66,0.478,1.292,0.968,1.895s1.156,1.092,2,1.469s2.082,0.565,3.714,0.565
		c1.353,0,2.449-0.173,3.288-0.519s1.51-0.811,2.011-1.394c0.501-0.583,0.846-1.298,1.032-2.146c0.187-0.847,0.28-2.297,0.28-4.349
		v-8.979h-3.452V329.427z"/>
	<rect x="350.24" y="319.971" fill="#050505" width="3.452" height="17.094"/>
	<polygon fill="#050505" points="355.015,322.863 360.087,322.863 360.087,337.065 363.538,337.065 363.538,322.863 
		368.599,322.863 368.599,319.971 355.015,319.971 	"/>
	<polygon fill="#050505" points="373.537,329.533 382.119,329.533 382.119,326.653 373.537,326.653 373.537,322.863 382.76,322.863 
		382.76,319.971 370.085,319.971 370.085,337.065 383.086,337.065 383.086,334.185 373.537,334.185 	"/>
	<path fill="#050505" d="M394.787,333.532c-0.661,0.583-1.45,0.875-2.367,0.875c-1.244,0-2.254-0.459-3.031-1.376
		c-0.777-0.917-1.166-2.456-1.166-4.617c0-2.037,0.395-3.51,1.184-4.42c0.789-0.909,1.817-1.364,3.084-1.364
		c0.917,0,1.696,0.257,2.338,0.77c0.641,0.514,1.063,1.213,1.265,2.1l3.416-0.816c-0.389-1.368-0.972-2.418-1.749-3.148
		c-1.306-1.236-3.004-1.854-5.095-1.854c-2.395,0-4.326,0.787-5.795,2.36c-1.469,1.574-2.204,3.784-2.204,6.629
		c0,2.689,0.731,4.81,2.192,6.36s3.327,2.326,5.597,2.326c1.834,0,3.348-0.452,4.542-1.358c1.193-0.905,2.046-2.291,2.56-4.156
		l-3.347-1.062C395.922,332.032,395.448,332.949,394.787,333.532z"/>
	<polygon fill="#050505" points="400.554,322.863 405.625,322.863 405.625,337.065 409.077,337.065 409.077,322.863 
		414.138,322.863 414.138,319.971 400.554,319.971 	"/>
	<path fill="#050505" d="M422.76,319.68c-1.392,0-2.62,0.226-3.685,0.676c-0.801,0.334-1.537,0.848-2.209,1.539
		c-0.672,0.692-1.203,1.474-1.592,2.344c-0.521,1.182-0.781,2.644-0.781,4.384c0,2.722,0.75,4.856,2.25,6.407
		c1.5,1.551,3.521,2.326,6.063,2.326c2.511,0,4.516-0.778,6.017-2.337c1.5-1.559,2.25-3.718,2.25-6.478
		c0-2.783-0.756-4.956-2.268-6.519C427.294,320.462,425.279,319.68,422.76,319.68z M426.182,332.92
		c-0.882,0.991-2.011,1.487-3.387,1.487s-2.511-0.5-3.405-1.499c-0.894-0.998-1.341-2.466-1.341-4.401
		c0-1.967,0.435-3.438,1.306-4.413s2.017-1.464,3.44-1.464c1.422,0,2.563,0.482,3.422,1.446c0.858,0.964,1.288,2.425,1.288,4.384
		C427.506,330.442,427.065,331.928,426.182,332.92z"/>
	<path fill="#050505" d="M443.48,327.627c-0.804-0.424-2.046-0.834-3.725-1.23c-1.679-0.396-2.736-0.777-3.172-1.143
		c-0.342-0.288-0.513-0.634-0.513-1.038c0-0.443,0.183-0.797,0.548-1.061c0.567-0.412,1.353-0.618,2.355-0.618
		c0.972,0,1.7,0.192,2.186,0.577s0.803,1.017,0.951,1.895l3.451-0.151c-0.055-1.57-0.624-2.825-1.708-3.767
		c-1.084-0.94-2.7-1.41-4.845-1.41c-1.313,0-2.435,0.198-3.364,0.594c-0.929,0.396-1.64,0.974-2.134,1.732
		c-0.494,0.758-0.74,1.572-0.74,2.442c0,1.353,0.524,2.499,1.574,3.439c0.746,0.669,2.044,1.232,3.894,1.691
		c1.438,0.357,2.359,0.605,2.764,0.746c0.591,0.21,1.004,0.456,1.242,0.74s0.355,0.628,0.355,1.032c0,0.629-0.282,1.18-0.845,1.649
		c-0.563,0.471-1.401,0.705-2.513,0.705c-1.049,0-1.883-0.264-2.501-0.792c-0.618-0.529-1.028-1.356-1.23-2.484l-3.358,0.327
		c0.226,1.912,0.917,3.367,2.076,4.366c1.158,0.999,2.817,1.498,4.979,1.498c1.485,0,2.725-0.208,3.72-0.623
		c0.995-0.416,1.765-1.052,2.309-1.907c0.544-0.854,0.816-1.771,0.816-2.751c0-1.081-0.228-1.988-0.682-2.723
		C444.915,328.629,444.285,328.05,443.48,327.627z"/>
	<polygon fill="#050505" points="457.56,329.533 466.142,329.533 466.142,326.653 457.56,326.653 457.56,322.863 466.784,322.863 
		466.784,319.971 454.109,319.971 454.109,337.065 467.11,337.065 467.11,334.185 457.56,334.185 	"/>
	<rect x="475.086" y="319.971" fill="#050505" width="3.452" height="17.094"/>
	<polygon fill="#050505" points="491.474,331.386 484.478,319.971 481.12,319.971 481.12,337.065 484.327,337.065 484.327,325.918 
		491.218,337.065 494.681,337.065 494.681,319.971 491.474,319.971 	"/>
	<path fill="#050505" d="M505.542,330.78h3.953v2.169c-0.521,0.404-1.145,0.748-1.872,1.032c-0.727,0.284-1.451,0.426-2.174,0.426
		c-1.462,0-2.644-0.508-3.545-1.521c-0.902-1.015-1.353-2.536-1.353-4.565c0-1.881,0.444-3.3,1.335-4.256
		c0.89-0.956,2.089-1.435,3.597-1.435c0.995,0,1.825,0.243,2.49,0.729c0.664,0.485,1.117,1.148,1.358,1.987l3.428-0.641
		c-0.342-1.57-1.109-2.801-2.303-3.69c-1.193-0.891-2.852-1.335-4.974-1.335c-1.632,0-2.996,0.283-4.093,0.851
		c-1.438,0.738-2.529,1.8-3.276,3.184c-0.746,1.384-1.119,2.966-1.119,4.745c0,1.641,0.334,3.158,1.003,4.554
		c0.668,1.396,1.667,2.468,2.997,3.218c1.329,0.751,2.888,1.125,4.675,1.125c1.407,0,2.797-0.266,4.169-0.798
		c1.372-0.533,2.419-1.148,3.143-1.849v-6.81h-7.439V330.78z"/>
	<polygon fill="#050505" points="518.875,329.533 527.457,329.533 527.457,326.653 518.875,326.653 518.875,322.863 
		528.099,322.863 528.099,319.971 515.424,319.971 515.424,337.065 528.425,337.065 528.425,334.185 518.875,334.185 	"/>
	<polygon fill="#050505" points="541.001,331.386 534.005,319.971 530.647,319.971 530.647,337.065 533.853,337.065 
		533.853,325.918 540.745,337.065 544.207,337.065 544.207,319.971 541.001,319.971 	"/>
	<rect x="547.012" y="319.971" fill="#050505" width="3.451" height="17.094"/>
	<polygon fill="#050505" points="556.462,329.533 565.044,329.533 565.044,326.653 556.462,326.653 556.462,322.863 
		565.686,322.863 565.686,319.971 553.011,319.971 553.011,337.065 566.012,337.065 566.012,334.185 556.462,334.185 	"/>
	<path fill="#050505" d="M579.527,330.955c-0.486-0.521-1.103-0.998-1.849-1.434c1.5-0.218,2.628-0.744,3.382-1.58
		s1.131-1.895,1.131-3.178c0-1.01-0.249-1.908-0.746-2.693c-0.498-0.785-1.16-1.331-1.988-1.638
		c-0.828-0.308-2.155-0.461-3.981-0.461h-7.265v17.094h3.451v-7.136h0.7c0.793,0,1.371,0.063,1.737,0.192
		c0.365,0.128,0.711,0.365,1.037,0.711c0.327,0.346,0.934,1.184,1.819,2.513l2.495,3.72h4.128l-2.087-3.335
		C580.667,332.401,580.012,331.476,579.527,330.955z M574.215,327.201h-2.554v-4.338h2.693c1.399,0,2.239,0.02,2.519,0.059
		c0.56,0.093,0.993,0.316,1.301,0.67c0.307,0.354,0.46,0.818,0.46,1.394c0,0.514-0.116,0.94-0.35,1.283
		c-0.233,0.342-0.556,0.583-0.968,0.723S575.871,327.201,574.215,327.201z"/>
	<path fill="#050505" d="M592.271,319.68c-1.392,0-2.62,0.226-3.685,0.676c-0.801,0.334-1.537,0.848-2.21,1.539
		c-0.672,0.692-1.202,1.474-1.591,2.344c-0.521,1.182-0.781,2.644-0.781,4.384c0,2.722,0.75,4.856,2.25,6.407
		s3.521,2.326,6.063,2.326c2.511,0,4.516-0.778,6.017-2.337c1.5-1.559,2.25-3.718,2.25-6.478c0-2.783-0.756-4.956-2.268-6.519
		C596.805,320.462,594.789,319.68,592.271,319.68z M595.693,332.92c-0.882,0.991-2.011,1.487-3.387,1.487s-2.511-0.5-3.405-1.499
		c-0.894-0.998-1.341-2.466-1.341-4.401c0-1.967,0.436-3.438,1.307-4.413c0.87-0.976,2.017-1.464,3.439-1.464
		s2.563,0.482,3.422,1.446c0.859,0.964,1.289,2.425,1.289,4.384C597.017,330.442,596.576,331.928,595.693,332.92z"/>
	<path fill="#050505" d="M614.879,329.364c-0.454-0.735-1.084-1.313-1.889-1.737s-2.046-0.834-3.726-1.23
		c-1.679-0.396-2.736-0.777-3.171-1.143c-0.343-0.288-0.514-0.634-0.514-1.038c0-0.443,0.183-0.797,0.549-1.061
		c0.567-0.412,1.353-0.618,2.354-0.618c0.972,0,1.701,0.192,2.187,0.577c0.486,0.385,0.803,1.017,0.95,1.895l3.451-0.151
		c-0.054-1.57-0.623-2.825-1.708-3.767c-1.084-0.94-2.699-1.41-4.845-1.41c-1.313,0-2.435,0.198-3.363,0.594
		c-0.93,0.396-1.641,0.974-2.134,1.732c-0.494,0.758-0.741,1.572-0.741,2.442c0,1.353,0.525,2.499,1.574,3.439
		c0.746,0.669,2.045,1.232,3.895,1.691c1.438,0.357,2.359,0.605,2.764,0.746c0.591,0.21,1.005,0.456,1.242,0.74
		c0.236,0.284,0.355,0.628,0.355,1.032c0,0.629-0.282,1.18-0.846,1.649c-0.563,0.471-1.401,0.705-2.513,0.705
		c-1.05,0-1.883-0.264-2.501-0.792c-0.618-0.529-1.028-1.356-1.23-2.484l-3.357,0.327c0.225,1.912,0.917,3.367,2.075,4.366
		s2.817,1.498,4.979,1.498c1.485,0,2.725-0.208,3.72-0.623c0.995-0.416,1.765-1.052,2.309-1.907
		c0.544-0.854,0.816-1.771,0.816-2.751C615.562,331.005,615.334,330.098,614.879,329.364z"/>
</g>
<g>
</g>
<g>
</g>
<g>
</g>
<g>
</g>
<g>
</g>
<g>
</g>
</svg>
