<svg id="Layer_1" data-name="Layer 1" xmlns="http://www.w3.org/2000/svg" viewBox="0 0 600 300"><defs><style>.cls-1,.cls-2{fill:#eebe43;}.cls-2{stroke:#eebe43;stroke-miterlimit:10;}</style></defs><title>logo</title><path class="cls-1" d="M361.24,97.84c-11.75,1.52-12.51,2.65-12.51,13.83v15.92a103.66,103.66,0,0,0,1.14,18c-11.75,2.66-26.53,6.83-42.45,6.83-42.26,0-69.74-26.72-69.74-64.81,0-41.12,32.6-63.86,70.5-63.86,20.09,0,33.54,4.35,39.41,4.73.38,7,1.33,18.76,2.85,30.7l-5.69,1.14c-4.55-16.11-10.23-23.5-22.17-27.48-4.36-1.51-10.8-2.08-17.05-2.08-29,0-48.14,18.76-48.14,54.57,0,30.32,15.35,60.07,52.49,60.07,6.45,0,12.32-1.13,16.11-3,4-2.27,6.26-4.74,6.26-12.5V114.52c0-13.84-1.52-15.35-19.71-16.68v-5.5h48.7Z"/><path class="cls-1" d="M324.71,65.25c26.72,0,43.58,5.31,55.33,16.49,9.29,9.09,16.11,22.36,16.11,40.55,0,22.17-9.09,40.17-23.69,51.16-14.4,10.8-32.78,15-56.09,15H272v-5.3c16.3-1.52,17.05-2.84,17.05-18.38V89.13c0-16.3-2.27-17.06-17.05-18.57V65.25Zm-19.14,98c0,14.21,6.06,18.19,20.28,18.19,34.11,0,51.54-23.31,51.54-56.47,0-20.65-7-36.38-22-45.48C346.69,74,335.7,71.88,323,71.88c-8.52,0-13.07,1.14-15,2.66-1.7,1.13-2.46,3.22-2.46,10.61Z"/><path class="cls-1" d="M125.1,238.78c-3.35.43-3.57.75-3.57,3.93v4.54a29.48,29.48,0,0,0,.33,5.12c-3.35.76-7.56,1.94-12.09,1.94-12,0-19.85-7.6-19.85-18.45,0-11.71,9.28-18.18,20.07-18.18,5.72,0,9.55,1.24,11.22,1.35.11,2,.38,5.34.81,8.74l-1.62.32c-1.29-4.58-2.91-6.69-6.31-7.82a16.22,16.22,0,0,0-4.86-.6c-8.25,0-13.7,5.35-13.7,15.54,0,8.64,4.37,17.11,14.94,17.11a11,11,0,0,0,4.59-.86c1.13-.65,1.78-1.35,1.78-3.57v-4.37c0-3.94-.43-4.37-5.61-4.74v-1.57H125.1Z"/><path class="cls-1" d="M162.81,253.94c-.7,0-1.29-.06-2-.11-3.94-.27-6-1.3-8.42-4.64-2-2.75-3.94-6.15-5.67-8.9-1.07-1.73-1.78-2-4.53-2h-1.89v8.47c0,4.58.6,4.85,4.91,5.28v1.51h-14.4V252c4.48-.48,4.85-.7,4.85-5.28V225.18c0-4.59-.59-4.75-4.85-5.23v-1.52h13.76c3.93,0,6.58.49,8.63,1.84a8.06,8.06,0,0,1,3.67,7.12c0,4.64-3,7.55-7,9.28,1,1.67,3.29,5.29,4.91,7.72a48.77,48.77,0,0,0,4.26,5.55,7.82,7.82,0,0,0,3.94,2.49ZM142.9,236.4c2.81,0,4.59-.43,5.94-1.56,2.1-1.57,3-3.73,3-6.64,0-5.77-3.83-7.88-8-7.88a5,5,0,0,0-2.86.54c-.48.38-.65.92-.65,2.32V236.4Z"/><path class="cls-1" d="M201.29,220c-3.4.21-4.64,1.07-4.75,3.56-.06,1.24-.16,3.5-.16,8.47v5.82c0,5.51-.65,9.72-3.78,13-2.54,2.64-6.21,3.45-9.93,3.45-3.13,0-6.47-.65-8.85-2.48-3.24-2.48-4.8-6.21-4.8-12.52V225.5c0-4.85-.43-5.18-4.75-5.55v-1.52h14.19V220c-4.31.26-4.75.7-4.75,5.55V239c0,7.88,3.73,12.19,10.2,12.19,7.66,0,10.09-4.74,10.09-13.7V232c0-5-.16-7-.27-8.47-.16-2.43-1.4-3.35-5.39-3.56v-1.52h12.95Z"/><path class="cls-1" d="M219.53,218.43c3.83,0,6.9.71,9.11,2.32a9.12,9.12,0,0,1,3.57,7.67c0,7.87-6.75,11.06-11.87,11.06a9.89,9.89,0,0,1-1.46-.11l-3.72-1v8.41c0,4.54.37,4.65,5.34,5.18v1.51H205.61V252c4.64-.48,4.85-.81,4.85-5.28V225.29c0-4.81-.59-4.91-4.85-5.34v-1.52Zm-4.37,18.08a9.8,9.8,0,0,0,3.93.7c3.62,0,8.1-1.83,8.1-8.63,0-5.94-3.89-8.31-8.42-8.31-1.56,0-2.7.27-3,.65s-.59,1-.59,2.48Z"/><path class="cls-1" d="M257.62,217.68a17.34,17.34,0,0,1,17.48,17.8c0,11.6-7.88,18.83-17.8,18.83-10.36,0-17.92-7.87-17.92-18C239.38,226.63,246.24,217.68,257.62,217.68Zm-1.08,2c-6,0-11.54,5.08-11.54,15.17s5.5,17.42,13.16,17.42c6.53,0,11.44-4.85,11.44-15.27C269.6,225.66,263.61,219.67,256.54,219.67Z"/><path class="cls-1" d="M310.23,218.43c7.61,0,12.41,1.52,15.76,4.7a15.62,15.62,0,0,1,4.58,11.54c0,6.32-2.59,11.44-6.74,14.57s-9.34,4.26-16,4.26H295.23V252c4.64-.43,4.86-.81,4.86-5.23V225.23c0-4.64-.65-4.85-4.86-5.28v-1.52Zm-5.45,27.9c0,4,1.73,5.18,5.77,5.18,9.72,0,14.68-6.64,14.68-16.08,0-5.88-2-10.36-6.26-13-2.48-1.56-5.61-2.16-9.23-2.16-2.42,0-3.72.33-4.26.76s-.7.92-.7,3Z"/><path class="cls-1" d="M374.17,220c-3.4.21-4.64,1.07-4.75,3.56-.05,1.24-.16,3.5-.16,8.47v5.82c0,5.51-.65,9.72-3.78,13-2.53,2.64-6.2,3.45-9.92,3.45-3.13,0-6.48-.65-8.85-2.48-3.24-2.48-4.81-6.21-4.81-12.52V225.5c0-4.85-.43-5.18-4.74-5.55v-1.52h14.19V220c-4.32.26-4.75.7-4.75,5.55V239c0,7.88,3.72,12.19,10.2,12.19,7.66,0,10.09-4.74,10.09-13.7V232c0-5-.17-7-.27-8.47-.17-2.43-1.41-3.35-5.4-3.56v-1.52h12.95Z"/><path class="cls-1" d="M410.48,253.94c-.7,0-1.29-.06-2-.11-3.94-.27-6-1.3-8.42-4.64-2-2.75-3.94-6.15-5.66-8.9-1.08-1.73-1.78-2-4.54-2H388v8.47c0,4.58.59,4.85,4.91,5.28v1.51H378.49V252c4.48-.48,4.86-.7,4.86-5.28V225.18c0-4.59-.6-4.75-4.86-5.23v-1.52h13.76c3.94,0,6.58.49,8.63,1.84a8.06,8.06,0,0,1,3.67,7.12c0,4.64-3,7.55-7,9.28,1,1.67,3.29,5.29,4.91,7.72a50,50,0,0,0,4.26,5.55,7.82,7.82,0,0,0,3.94,2.49Zm-19.9-17.54c2.8,0,4.58-.43,5.93-1.56,2.11-1.57,3-3.73,3-6.64,0-5.77-3.83-7.88-8-7.88a5,5,0,0,0-2.86.54c-.48.38-.64.92-.64,2.32V236.4Z"/><path class="cls-1" d="M434.61,253.5V252c3.5-.43,3.93-1,3.18-3s-1.78-4.8-2.91-8.2H423.22c-.86,2.43-1.67,4.53-2.43,6.75-1.18,3.5-.43,3.94,4,4.47v1.51H412.32V252c3.4-.43,4.26-.81,6.15-5.66L429.64,218l1.73-.32c3.4,9.23,7.12,19.42,10.52,28.76,1.73,4.69,2.21,5.12,6,5.55v1.51Zm-5.4-28.75c-1.73,4.64-3.56,9.55-5.18,13.81h10.09Z"/><path class="cls-1" d="M488.67,220c-3.45.37-4.59.91-4.75,3.39-.05,1.73-.16,4-.16,9V254h-2.05l-23.09-28.22v13.49c0,4.86.16,7.28.27,8.85.11,2.75,1.45,3.56,5.34,3.88v1.51H451.12V252c3.34-.27,4.64-1.07,4.85-3.72.17-1.73.27-4.15.27-9.06V225.45a4.69,4.69,0,0,0-1.07-3.56c-1-1.35-2.16-1.68-4.81-1.94v-1.52h8.1l22.87,27.14V232.35c0-5-.11-7.33-.27-8.95-.16-2.43-1.4-3.19-5.72-3.45v-1.52h13.33Z"/><path class="cls-1" d="M509.28,218.43c7.61,0,12.41,1.52,15.76,4.7a15.62,15.62,0,0,1,4.58,11.54c0,6.32-2.58,11.44-6.74,14.57s-9.33,4.26-16,4.26H494.28V252c4.64-.43,4.86-.81,4.86-5.23V225.23c0-4.64-.65-4.85-4.86-5.28v-1.52Zm-5.45,27.9c0,4,1.73,5.18,5.78,5.18,9.71,0,14.67-6.64,14.67-16.08,0-5.88-2-10.36-6.26-13-2.48-1.56-5.61-2.16-9.22-2.16-2.43,0-3.72.33-4.26.76s-.71.92-.71,3Z"/><path class="cls-1" d="M188.9,281.71a25.78,25.78,0,0,1-1.19,3.26,21.13,21.13,0,0,1-4,.52c-5.16,0-7.79-3.56-7.79-7.21,0-4.62,3.41-7.45,8.29-7.45a23.2,23.2,0,0,1,4,.5c.09,1,.24,2.28.41,3.36l-.67.15a3.9,3.9,0,0,0-2.09-2.85,5.55,5.55,0,0,0-2.16-.36c-3.63,0-5.51,2.89-5.51,6.19,0,4.17,2.4,6.85,5.68,6.85,2.2,0,3.26-1,4.36-3.18Z"/><path class="cls-1" d="M196.37,270.83a6.94,6.94,0,0,1,7,7.12c0,4.65-3.15,7.54-7.12,7.54a7,7,0,0,1-7.17-7.21A7.19,7.19,0,0,1,196.37,270.83Zm-.43.8c-2.42,0-4.63,2-4.63,6.06s2.21,7,5.27,7c2.62,0,4.58-1.94,4.58-6.11C201.16,274,198.76,271.63,195.94,271.63Z"/><path class="cls-1" d="M218.43,271.74c-1.38.15-1.84.36-1.9,1.36,0,.69-.07,1.59-.07,3.6v8.66h-.82l-9.24-11.29v5.39c0,2,.07,2.92.11,3.55,0,1.1.58,1.42,2.14,1.55v.61H203.4v-.61c1.34-.11,1.86-.43,1.94-1.49.07-.69.11-1.66.11-3.63v-5.5a1.89,1.89,0,0,0-.43-1.43c-.41-.54-.86-.67-1.92-.77v-.61h3.24L215.49,282V276.7a35.06,35.06,0,0,0-.11-3.58c-.06-1-.56-1.28-2.29-1.38v-.61h5.34Z"/><path class="cls-1" d="M225.53,274.43c-.37-1.42-1.06-2.85-3-2.85a2.18,2.18,0,0,0-2.33,2.34c0,1.55,1,2.31,2.74,3.17s3.71,1.86,3.71,4.3c0,2.28-1.94,4.1-4.73,4.1a11,11,0,0,1-3.32-.67c-.15-.54-.43-2.31-.58-3.33l.66-.17c.37,1.34,1.32,3.37,3.55,3.37a2.39,2.39,0,0,0,2.59-2.57c0-1.62-1.13-2.35-2.79-3.24-1.4-.75-3.56-1.81-3.56-4.27,0-2.08,1.53-3.78,4.38-3.78a18.65,18.65,0,0,1,3,.37c.09.77.17,1.7.35,3.1Z"/><path class="cls-1" d="M241.18,271.74c-1.36.08-1.86.43-1.9,1.42,0,.5-.07,1.4-.07,3.39v2.33c0,2.2-.26,3.89-1.51,5.21a5.34,5.34,0,0,1-4,1.38,5.83,5.83,0,0,1-3.54-1c-1.3-1-1.93-2.48-1.93-5V274c0-1.94-.17-2.07-1.9-2.22v-.61H232v.61c-1.72.1-1.9.28-1.9,2.22v5.4c0,3.15,1.49,4.88,4.08,4.88,3.07,0,4-1.9,4-5.49v-2.2c0-2-.06-2.81-.11-3.39-.06-1-.56-1.34-2.16-1.42v-.61h5.19Z"/><path class="cls-1" d="M251.28,281.58c-.13.67-.78,2.92-1,3.59h-10v-.61c2-.19,2.14-.3,2.14-2.14v-8.57c0-1.83-.22-1.94-1.94-2.11v-.61h5.78v.61c-1.72.17-2,.25-2,2.11v8.79c0,1.32.17,1.62,1.4,1.64,0,0,1.58,0,1.71,0,1.1,0,1.42-.13,1.92-.67a7.39,7.39,0,0,0,1.32-2.22Z"/><path class="cls-1" d="M260.21,274.52a7.88,7.88,0,0,0-.69-1.79c-.34-.58-.56-.74-1.75-.74h-2.16v10.52c0,1.68.18,1.92,2.23,2.05v.61h-6.29v-.61c2-.13,2.19-.35,2.19-2.05V272h-2c-1.19,0-1.53.13-1.9.78a9.69,9.69,0,0,0-.71,1.75h-.65c.13-1.32.26-2.68.32-3.89h.5c.32.52.56.5,1.17.5h8.55a1.09,1.09,0,0,0,1.1-.5h.52c0,1,.08,2.57.19,3.83Z"/><path class="cls-1" d="M268,270.83a7,7,0,0,1,7,7.12c0,4.65-3.16,7.54-7.13,7.54a7,7,0,0,1-7.17-7.21A7.2,7.2,0,0,1,268,270.83Zm-.43.8c-2.42,0-4.62,2-4.62,6.06s2.2,7,5.27,7c2.61,0,4.57-1.94,4.57-6.11C272.77,274,270.38,271.63,267.55,271.63Z"/><path class="cls-1" d="M287.93,285.34a7,7,0,0,1-.8,0,3.8,3.8,0,0,1-3.37-1.85c-.8-1.1-1.58-2.46-2.27-3.56-.43-.7-.71-.83-1.81-.83h-.76v3.39c0,1.84.24,1.95,2,2.12v.61h-5.77v-.61c1.79-.19,1.95-.28,1.95-2.12v-8.61c0-1.84-.24-1.9-1.95-2.09v-.61h5.51a6.08,6.08,0,0,1,3.45.74,3.21,3.21,0,0,1,1.47,2.84,4,4,0,0,1-2.78,3.72c.38.67,1.31,2.11,2,3.09a19.77,19.77,0,0,0,1.71,2.22,3.08,3.08,0,0,0,1.57,1Zm-8-7a3.43,3.43,0,0,0,2.37-.63,3,3,0,0,0,1.19-2.65,2.9,2.9,0,0,0-3.19-3.15,2,2,0,0,0-1.15.21c-.19.15-.26.37-.26.93v5.29Z"/><path class="cls-1" d="M295.11,285.17v-.61c1.4-.17,1.58-.39,1.27-1.21s-.71-1.92-1.16-3.28h-4.66c-.35,1-.67,1.81-1,2.7-.47,1.4-.17,1.57,1.6,1.79v.61h-5v-.61c1.36-.17,1.71-.32,2.47-2.27L293.12,271l.7-.13c1.36,3.69,2.85,7.77,4.21,11.51.69,1.87.88,2.05,2.41,2.22v.61ZM293,273.66c-.69,1.85-1.42,3.82-2.07,5.52h4Z"/><path class="cls-1" d="M311.9,285.17c-.41-.42-.8-.83-1.36-1.43a5.93,5.93,0,0,1-4.25,1.66,4.12,4.12,0,0,1-4.47-4.08,4.78,4.78,0,0,1,2.85-4.25V277a5,5,0,0,1-1.21-3,3.53,3.53,0,0,1,3.69-3.58,3,3,0,0,1,3.22,3.08c0,1.54-.88,2.75-3.19,3.89v.06c1.23,1.43,2.61,3,3.54,4.06a10.64,10.64,0,0,0,1.4-4.25h1.73a11.11,11.11,0,0,1-2.1,5.38c.78.82,1.54,1.64,2.4,2.57Zm-2.28-2.51c-.87-1-2.49-2.72-4.11-4.58a3.61,3.61,0,0,0-1.88,3,2.88,2.88,0,0,0,3,2.94A4.07,4.07,0,0,0,309.62,282.66Zm-4.43-8.87a4.07,4.07,0,0,0,1.1,2.61c1.47-.84,2.42-1.62,2.42-2.85a1.72,1.72,0,0,0-1.69-1.88A1.9,1.9,0,0,0,305.19,273.79Z"/><path class="cls-1" d="M326.71,284.69a9.23,9.23,0,0,1-3.84.69c-4.11,0-7.19-2.59-7.19-7.36a7.23,7.23,0,0,1,7.6-7.64,7.82,7.82,0,0,1,3.45.64l-.45,1.54a6.78,6.78,0,0,0-2.94-.61c-3.41,0-5.68,2.18-5.68,6,0,3.57,2,5.85,5.59,5.85a7.45,7.45,0,0,0,3.07-.6Z"/><path class="cls-1" d="M339.1,277.74c0,5-3,7.66-6.76,7.66s-6.54-3-6.54-7.38c0-4.62,2.87-7.64,6.76-7.64S339.1,273.42,339.1,277.74Zm-11.29.24c0,3.1,1.68,5.89,4.64,5.89s4.66-2.74,4.66-6.05c0-2.89-1.51-5.91-4.64-5.91S327.81,274.78,327.81,278Z"/><path class="cls-1" d="M339.59,285.17V270.61h2.05l4.67,7.37a40.39,40.39,0,0,1,2.61,4.72l0,0c-.17-1.94-.21-3.71-.21-6v-6.09h1.77v14.56h-1.9L344,277.78a44.29,44.29,0,0,1-2.72-4.86l-.07,0c.11,1.84.15,3.59.15,6v6.22Z"/><path class="cls-1" d="M351.59,282.88a6.76,6.76,0,0,0,3.37.95c1.92,0,3-1,3-2.49s-.77-2.13-2.74-2.89c-2.37-.84-3.84-2.07-3.84-4.12,0-2.27,1.88-3.95,4.71-3.95a6.53,6.53,0,0,1,3.21.71l-.51,1.53a5.82,5.82,0,0,0-2.77-.69c-2,0-2.74,1.19-2.74,2.18,0,1.36.89,2,2.89,2.81,2.46.95,3.72,2.13,3.72,4.27s-1.67,4.19-5.1,4.19a7.5,7.5,0,0,1-3.71-.93Z"/><path class="cls-1" d="M363.31,272.21h-4.42v-1.6h10.77v1.6h-4.45v13h-1.9Z"/><path class="cls-1" d="M369.33,270.81a19,19,0,0,1,3.61-.31c2,0,3.3.37,4.21,1.19a3.64,3.64,0,0,1,1.14,2.77,3.81,3.81,0,0,1-2.74,3.71v.06c1.13.39,1.79,1.43,2.14,2.94a24.35,24.35,0,0,0,1.12,4h-1.94a19.1,19.1,0,0,1-1-3.48c-.43-2-1.21-2.77-2.92-2.83h-1.77v6.31h-1.88Zm1.88,6.63h1.92c2,0,3.29-1.11,3.29-2.77,0-1.88-1.36-2.7-3.35-2.72a8.13,8.13,0,0,0-1.86.17Z"/><path class="cls-1" d="M380.88,270.61v8.62c0,3.26,1.45,4.64,3.39,4.64,2.16,0,3.54-1.43,3.54-4.64v-8.62h1.9v8.49c0,4.47-2.35,6.3-5.5,6.3-3,0-5.23-1.7-5.23-6.22v-8.57Z"/><path class="cls-1" d="M401.2,284.69a9.32,9.32,0,0,1-3.85.69c-4.1,0-7.19-2.59-7.19-7.36a7.24,7.24,0,0,1,7.6-7.64,7.84,7.84,0,0,1,3.46.64l-.46,1.54a6.73,6.73,0,0,0-2.93-.61c-3.41,0-5.68,2.18-5.68,6,0,3.57,2.05,5.85,5.59,5.85a7.52,7.52,0,0,0,3.07-.6Z"/><path class="cls-1" d="M405,272.21h-4.43v-1.6h10.78v1.6h-4.45v13H405Z"/><path class="cls-1" d="M422.84,277.74c0,5-3,7.66-6.75,7.66s-6.55-3-6.55-7.38c0-4.62,2.88-7.64,6.76-7.64S422.84,273.42,422.84,277.74Zm-11.29.24c0,3.1,1.69,5.89,4.64,5.89s4.67-2.74,4.67-6.05c0-2.89-1.51-5.91-4.64-5.91S411.55,274.78,411.55,278Z"/><path class="cls-1" d="M423.34,270.81a19,19,0,0,1,3.6-.31c2,0,3.31.37,4.21,1.19a3.61,3.61,0,0,1,1.15,2.77,3.82,3.82,0,0,1-2.75,3.71v.06a3.62,3.62,0,0,1,2.14,2.94,24.35,24.35,0,0,0,1.12,4h-1.94a19.1,19.1,0,0,1-1-3.48c-.43-2-1.21-2.77-2.91-2.83h-1.78v6.31h-1.87Zm1.87,6.63h1.93c2,0,3.28-1.11,3.28-2.77,0-1.88-1.36-2.7-3.35-2.72a8.27,8.27,0,0,0-1.86.17Z"/><path class="cls-1" d="M435.47,280.59,434,285.17H432L437,270.61h2.26l5,14.56h-2l-1.55-4.58Zm4.77-1.47-1.43-4.19c-.32-.95-.54-1.81-.75-2.65H438c-.21.86-.45,1.74-.73,2.63l-1.42,4.21Z"/><line class="cls-2" x1="443.37" y1="276.81" x2="530.79" y2="276.81"/><line class="cls-2" x1="84" y1="277.35" x2="171.41" y2="277.35"/></svg>